<mxfile host="app.diagrams.net" modified="2024-05-01T19:21:44.345Z" agent="Mozilla/5.0 (X11; Linux x86_64) AppleWebKit/537.36 (KHTML, like Gecko) Chrome/124.0.0.0 Safari/537.36" version="24.3.1" etag="JjKK87INesJTZK8kLqFk" type="github">
  <diagram name="Page-1" id="5PMUw123p2Y-4-Y8rvzQ">
    <mxGraphModel>
      <root>
        <mxCell id="0" />
        <mxCell id="1" parent="0" />
      </root>
    </mxGraphModel>
  </diagram>
</mxfile>
